<svg width="40" height="35" viewBox="0 0 40 35" fill="none" xmlns="http://www.w3.org/2000/svg">
<g clip-path="url(#clip0_5_260)">
<g mask="url(#mask0_5_260)">
<path fill-rule="evenodd" clip-rule="evenodd" d="M40 14.861C40 13.249 38.677 11.941 37.044 11.941C35.411 11.941 34.087 13.249 34.087 14.861C34.087 14.906 34.099 14.945 34.101 14.989L27.88 17.18C27.0689 15.1043 25.649 13.3224 23.8069 12.0681C21.9648 10.8139 19.7865 10.146 17.558 10.152C15.322 10.152 13.245 10.812 11.506 11.938L10.528 10.596C11.716 9.475 12.463 7.903 12.463 6.153C12.463 2.756 9.673 0 6.232 0C2.79 0 0 2.756 0 6.154C0 9.554 2.79 12.31 6.232 12.31C7.277 12.31 8.247 12.032 9.113 11.582L10.139 12.992C7.907 14.99 6.499 17.868 6.499 21.077C6.499 22.437 6.761 23.732 7.22 24.933C7.66474 24.8325 8.11906 24.7806 8.575 24.778C12.018 24.778 14.807 27.533 14.807 30.933C14.807 31.172 14.763 31.397 14.737 31.628C15.638 31.862 16.581 32 17.557 32C23.665 32 28.617 27.11 28.617 21.077C28.617 20.303 28.532 19.55 28.379 18.823L34.683 16.601C34.916 16.91 35.209 17.168 35.546 17.365L34.179 22.992L34.159 22.99C32.06 22.99 30.359 24.67 30.359 26.743C30.359 28.815 32.06 30.495 34.159 30.495C36.257 30.495 37.959 28.815 37.959 26.743C37.959 25.278 37.1 24.022 35.861 23.403L37.231 17.763C38.774 17.666 40 16.41 40 14.86" fill="#00919F"/>
</g>
<mask id="mask1_5_260" style="mask-type:luminance" maskUnits="userSpaceOnUse" x="2" y="23" width="12" height="12">
<path d="M2 23H14V35H2V23Z" fill="#00919F"/>
</mask>
<g mask="url(#mask1_5_260)">
<path fill-rule="evenodd" clip-rule="evenodd" d="M6.72201 23C5.3794 23.3045 4.1804 24.0568 3.3222 25.1333C2.464 26.2098 1.9977 27.5463 2.00001 28.923C2.00001 32.28 4.70201 35 8.03401 35C11.133 35 13.658 32.64 14 29.61C12.3483 29.1671 10.8263 28.3362 9.5604 27.1865C8.29453 26.0368 7.32143 24.6015 6.72201 23Z" fill="#00919F"/>
</g>
</g>
<defs>
<clipPath id="clip0_5_260">
<rect width="40" height="35" fill="white"/>
</clipPath>
</defs>
</svg>
